<?xml version="1.0" standalone="no"?>
<!DOCTYPE svg PUBLIC "-//W3C//DTD SVG 20010904//EN"
 "http://www.w3.org/TR/2001/REC-SVG-20010904/DTD/svg10.dtd">
<svg version="1.0" xmlns="http://www.w3.org/2000/svg"
 width="1120.000000pt" height="1120.000000pt" viewBox="0 0 1120.000000 1120.000000"
 preserveAspectRatio="xMidYMid meet">

<g transform="translate(0.000000,1120.000000) scale(0.100000,-0.100000)"
fill="#000000" stroke="none">
<path d="M0 5600 l0 -5600 5600 0 5600 0 0 5600 0 5600 -5600 0 -5600 0 0
-5600z m4471 2811 c22 -17 25 -30 30 -123 4 -56 7 -672 8 -1368 1 -1042 -2
-1274 -13 -1316 -41 -154 -176 -294 -334 -346 -190 -62 -419 38 -505 222 -27
57 -31 76 -31 155 0 65 5 104 19 140 73 193 246 315 447 315 63 0 163 -23 183
-41 5 -5 18 -9 28 -9 19 0 19 24 16 1169 l-4 1169 24 26 c31 33 96 36 132 7z
m1234 -201 c61 -16 247 -64 415 -105 786 -195 1037 -259 1062 -271 14 -8 36
-27 47 -43 21 -29 21 -32 21 -1033 0 -1089 2 -1051 -56 -1159 -35 -66 -132
-165 -197 -203 -61 -35 -168 -66 -227 -66 -66 0 -170 32 -229 69 -94 61 -151
149 -173 271 -38 204 101 423 320 502 85 31 217 28 300 -5 l62 -26 0 339 0
339 -37 10 c-33 9 -163 40 -458 111 -112 27 -276 66 -402 95 -60 14 -126 29
-148 35 -22 5 -97 23 -167 40 -70 16 -139 30 -154 30 l-27 0 6 -802 c3 -442 3
-816 0 -831 -7 -34 -54 -67 -96 -67 -42 0 -86 27 -94 58 -5 15 -8 629 -8 1364
l0 1336 25 27 c30 32 50 31 215 -15z m2083 -738 c310 -318 422 -533 422 -814
0 -183 -45 -327 -139 -446 -90 -113 -165 -121 -206 -20 -14 36 -14 36 44 150
67 128 86 203 77 293 -15 149 -62 257 -167 385 -38 47 -88 109 -112 139 l-42
55 0 90 c1 71 6 102 22 139 19 41 26 47 52 47 17 0 39 -8 49 -18z m1777 -2426
c21 -16 38 -41 45 -64 6 -23 10 -205 10 -479 0 -244 3 -443 6 -443 11 0 101
77 273 234 96 87 189 165 207 172 86 36 176 -11 191 -99 7 -47 -38 -101 -209
-247 -79 -68 -144 -128 -145 -134 -3 -11 49 -68 290 -316 176 -181 189 -206
146 -277 -51 -82 -158 -85 -252 -7 -16 13 -58 56 -94 96 -65 72 -87 95 -232
256 -40 45 -79 82 -85 82 -7 0 -31 -19 -54 -43 l-42 -43 0 -144 c0 -164 -11
-200 -67 -233 -64 -37 -161 -14 -190 44 -20 38 -18 1560 1 1597 15 29 52 66
76 75 29 12 91 -2 125 -27z m1044 -114 c41 -30 71 -81 71 -121 0 -50 -38 -121
-79 -148 -63 -42 -174 -26 -219 32 -100 127 9 298 167 264 19 -4 46 -16 60
-27z m-9025 14 c18 -7 43 -26 55 -42 33 -42 26 -122 -14 -164 -49 -51 -94 -62
-251 -58 l-139 3 -5 -620 c-5 -585 -6 -622 -24 -651 -38 -63 -125 -86 -195
-50 -61 32 -59 13 -63 688 -2 339 -7 620 -11 625 -5 4 -88 10 -185 13 -119 4
-185 10 -200 18 -58 33 -79 127 -42 187 40 65 34 65 563 65 384 0 484 -3 511
-14z m4561 -10 c275 -67 483 -270 556 -542 29 -105 32 -341 6 -454 -50 -218
-194 -402 -391 -499 -153 -75 -196 -83 -506 -88 -304 -6 -331 -2 -367 53 -17
26 -18 70 -21 734 -2 499 0 716 8 743 7 25 22 45 43 58 31 19 45 20 317 16
224 -3 300 -8 355 -21z m-2484 -504 c109 -52 185 -140 221 -255 14 -48 19
-110 24 -375 7 -349 4 -379 -46 -427 -25 -24 -39 -29 -84 -29 -40 -1 -60 4
-76 19 -47 41 -50 65 -50 378 0 364 -8 399 -101 456 -47 29 -140 29 -194 0
-56 -30 -83 -57 -113 -114 l-27 -50 -5 -305 c-3 -168 -9 -312 -13 -320 -16
-33 -72 -60 -123 -60 -58 0 -85 16 -108 64 -14 30 -16 90 -16 499 l0 465 25
30 c32 39 76 56 120 48 36 -7 95 -50 95 -69 0 -7 4 -18 9 -26 8 -12 16 -9 45
17 37 32 100 68 146 83 14 5 66 7 115 5 77 -2 101 -8 156 -34z m1152 23 c134
-35 273 -139 339 -253 34 -60 78 -214 78 -274 0 -22 -7 -52 -15 -68 -31 -61
-26 -60 -411 -60 -194 0 -359 -3 -368 -6 -13 -5 -12 -12 9 -54 51 -101 160
-164 280 -162 69 1 109 16 180 65 103 70 133 79 189 52 37 -18 66 -61 66 -100
0 -88 -146 -202 -315 -246 -258 -68 -519 56 -642 306 -11 22 -28 73 -37 114
-60 270 59 526 302 650 98 50 236 64 345 36z m2775 -10 c155 -56 271 -164 325
-302 19 -49 47 -176 47 -214 0 -44 -29 -98 -62 -119 -30 -18 -48 -19 -375 -13
-391 7 -375 11 -327 -77 54 -99 189 -162 302 -140 60 11 68 15 170 82 79 51
88 53 154 26 37 -14 68 -66 68 -113 0 -32 -8 -45 -58 -94 -96 -93 -243 -151
-386 -151 -259 0 -477 165 -541 411 -25 96 -17 281 17 370 62 166 203 297 371
344 65 19 233 13 295 -10z m1265 -4 c180 -63 306 -189 277 -275 -13 -38 -43
-61 -99 -76 -53 -14 -75 -7 -132 44 -74 66 -132 91 -214 91 -84 -1 -147 -29
-211 -97 -71 -74 -89 -119 -89 -223 1 -113 25 -174 96 -240 64 -60 127 -86
206 -86 78 0 132 22 202 85 29 26 65 52 79 57 79 30 184 -59 168 -143 -13 -72
-151 -179 -289 -225 -95 -31 -224 -33 -317 -4 -286 88 -450 383 -385 690 45
213 209 374 430 422 64 13 213 3 278 -20z m-7000 4 c19 -8 46 -29 59 -47 23
-33 23 -38 28 -354 l5 -321 27 -40 c43 -66 89 -88 178 -87 84 0 118 14 171 66
68 69 72 89 70 404 -2 323 1 336 74 375 48 26 97 21 140 -13 54 -43 55 -49 55
-548 l0 -460 -27 -30 c-50 -56 -140 -58 -197 -5 -14 13 -26 33 -26 44 0 33
-16 32 -64 -5 -71 -54 -150 -86 -225 -91 -169 -12 -324 81 -407 246 l-29 56
-3 359 c-2 262 0 367 9 388 14 34 74 78 105 78 12 0 37 -7 57 -15z"/>
<path d="M5666 7760 c-14 -70 -2 -199 18 -204 6 -2 43 -10 81 -19 39 -9 189
-45 335 -81 146 -36 326 -79 400 -96 156 -36 494 -117 528 -126 22 -6 22 -6
22 119 l0 125 -32 7 c-18 4 -157 36 -308 72 -298 71 -549 129 -730 169 -63 14
-144 33 -180 41 -131 29 -126 29 -134 -7z"/>
<path d="M5718 4684 c-5 -4 -8 -245 -8 -534 l0 -527 108 -7 c339 -22 537 91
619 353 24 76 23 270 -1 360 -45 165 -140 268 -304 329 -59 21 -88 25 -237 29
-93 3 -173 2 -177 -3z"/>
<path d="M4602 4221 c-87 -30 -178 -119 -184 -181 l-3 -25 273 -3 c295 -3 299
-2 271 50 -41 76 -129 146 -211 166 -62 16 -83 15 -146 -7z"/>
<path d="M7313 4211 c-23 -11 -62 -40 -87 -64 -46 -46 -90 -120 -79 -131 8 -8
548 -8 556 0 10 10 -20 72 -57 117 -51 62 -113 90 -211 94 -64 3 -88 0 -122
-16z"/>
</g>
</svg>
